<svg xmlns="http://www.w3.org/2000/svg" xmlns:xlink="http://www.w3.org/1999/xlink" width="500" zoomAndPan="magnify" viewBox="0 0 375 374.999991" height="500" preserveAspectRatio="xMidYMid meet" version="1.0"><path fill="#bf000f" d="M 90.234375 284.746094 C 69.324219 268.421875 65.601562 238.238281 81.925781 217.332031 L 134.601562 149.84375 C 155.511719 166.164062 159.230469 196.34375 142.910156 217.253906 Z M 284.765625 90.207031 C 305.679688 106.527344 309.394531 136.710938 293.074219 157.621094 L 240.398438 225.109375 C 219.488281 208.789062 215.769531 178.605469 232.089844 157.695312 Z M 284.648438 284.753906 C 268.328125 305.660156 238.148438 309.382812 217.238281 293.0625 L 149.75 240.382812 C 166.070312 219.476562 196.253906 215.753906 217.160156 232.074219 Z M 157.722656 142.882812 C 178.628906 159.207031 208.8125 155.484375 225.132812 134.578125 L 157.644531 81.898438 C 136.734375 65.574219 106.554688 69.296875 90.234375 90.207031 Z M 32.226562 223.566406 C 50.019531 223.566406 64.441406 209.144531 64.441406 191.351562 C 64.441406 173.5625 50.019531 159.140625 32.226562 159.140625 C 14.4375 159.140625 0.015625 173.5625 0.015625 191.351562 C 0.015625 209.144531 14.4375 223.566406 32.226562 223.566406 Z M 374.984375 191.351562 C 374.984375 173.5625 360.566406 159.140625 342.773438 159.140625 C 324.980469 159.140625 310.558594 173.5625 310.558594 191.351562 C 310.558594 209.144531 324.980469 223.566406 342.773438 223.566406 C 360.566406 223.566406 374.984375 209.144531 374.984375 191.351562 Z M 183.507812 374.972656 C 201.296875 374.972656 215.71875 360.546875 215.71875 342.753906 C 215.71875 324.96875 201.296875 310.542969 183.507812 310.542969 C 165.714844 310.542969 151.292969 324.96875 151.292969 342.753906 C 151.292969 360.546875 165.714844 374.972656 183.507812 374.972656 Z M 223.589844 32.203125 C 223.589844 49.992188 209.167969 64.417969 191.375 64.417969 C 173.585938 64.417969 159.160156 49.992188 159.160156 32.203125 C 159.160156 14.410156 173.585938 -0.0117188 191.375 -0.0117188 C 209.167969 -0.0117188 223.589844 14.410156 223.589844 32.203125 " fill-opacity="1" fill-rule="nonzero"/><path fill="#820812" d="M 90.234375 90.207031 C 69.324219 106.527344 65.601562 136.710938 81.925781 157.621094 L 134.601562 225.109375 C 155.511719 208.789062 159.230469 178.605469 142.910156 157.695312 Z M 284.765625 284.746094 C 305.679688 268.421875 309.394531 238.238281 293.074219 217.332031 L 240.398438 149.84375 C 219.488281 166.164062 215.769531 196.34375 232.089844 217.253906 Z M 90.117188 284.753906 C 106.433594 305.660156 136.617188 309.382812 157.527344 293.0625 L 225.015625 240.382812 C 208.695312 219.476562 178.511719 215.753906 157.601562 232.074219 Z M 217.277344 142.882812 C 196.367188 159.207031 166.1875 155.484375 149.867188 134.578125 L 217.355469 81.898438 C 238.265625 65.574219 268.445312 69.296875 284.765625 90.207031 L 217.277344 142.882812 " fill-opacity="1" fill-rule="nonzero"/></svg>